{"glyphs":{":":{"x_min":0,"x_max":280,"ha":280,"o":"m 140 545 q 172 545 194 522 q 217 500 217 468 q 217 437 194 415 q 172 392 140 392 q 108 392 86 414 q 63 437 63 468 q 63 500 86 522 q 108 545 140 545 z m 140 139 q 172 139 194 117 q 217 95 217 63 q 217 31 194 9 q 172 -14 140 -14 q 108 -14 86 9 q 63 31 63 63 q 63 95 86 117 q 108 139 140 139 z"},"$":{"x_min":0,"x_max":560,"ha":560,"o":"m 507 635 l 413 543 q 349 610 286 610 q 249 610 225 590 q 202 570 202 544 q 202 522 223 501 q 243 479 304 454 q 412 409 452 377 q 492 346 514 301 q 535 257 535 202 q 535 146 512 100 q 489 53 453 25 q 417 -2 349 -16 l 349 -146 l 257 -146 l 257 -19 q 193 -12 148 13 q 87 47 34 104 l 127 199 q 216 104 300 104 q 342 104 373 134 q 403 163 403 203 q 403 237 384 262 q 364 288 307 314 q 190 368 149 399 q 108 431 88 470 q 68 509 68 554 q 68 627 122 680 q 175 732 257 736 l 257 785 l 349 785 l 349 730 q 396 719 429 700 q 462 681 507 635 z"},"?":{"x_min":0,"x_max":560,"ha":560,"o":"m 177 533 l 49 533 q 48 627 113 688 q 179 750 286 750 q 354 750 403 725 q 451 699 480 651 q 509 604 509 551 q 509 522 500 494 q 491 466 471 437 q 459 420 415 379 q 372 341 361 325 q 351 309 343 283 q 336 256 334 209 l 202 209 l 201 231 q 201 297 225 350 q 249 404 303 451 q 354 496 365 513 q 376 530 376 553 q 376 584 350 606 q 324 628 280 628 q 235 628 206 601 q 177 575 177 533 z m 270 154 q 306 154 331 129 q 356 105 356 70 q 356 36 331 11 q 306 -14 271 -14 q 236 -14 211 11 q 187 36 187 70 q 187 105 211 129 q 235 154 270 154 z"},"<":{"x_min":0,"x_max":600,"ha":600,"o":"m 544 179 l 544 57 l 56 305 l 56 413 l 544 661 l 544 540 l 196 359 z"},"'":{"x_min":0,"x_max":220,"ha":220,"o":"m 148 490 l 72 490 l 45 736 l 175 736 z"},"=":{"x_min":0,"x_max":600,"ha":600,"o":"m 56 524 l 544 524 l 544 402 l 56 402 z m 56 315 l 544 315 l 544 193 l 56 193 z"},"a":{"x_min":0,"x_max":660,"ha":660,"o":"m 460 531 l 593 531 l 593 0 l 460 0 l 460 56 q 421 19 382 3 q 342 -14 296 -14 q 193 -14 118 66 q 43 146 43 265 q 43 388 116 466 q 188 545 292 545 q 340 545 382 527 q 424 509 460 473 z m 320 422 q 258 422 217 378 q 176 334 176 266 q 176 197 218 153 q 259 108 320 108 q 383 108 425 152 q 466 196 466 267 q 466 336 425 379 q 383 422 320 422 z"},"L":{"x_min":0,"x_max":440,"ha":440,"o":"m 82 718 l 219 718 l 219 130 l 418 130 l 418 0 l 82 0 z"},"3":{"x_min":0,"x_max":560,"ha":560,"o":"m 190 541 l 59 541 q 69 621 116 669 q 181 736 280 736 q 369 736 428 680 q 488 624 488 547 q 488 499 462 459 q 436 420 386 396 q 452 376 489 327 q 525 279 525 213 q 525 116 454 49 q 383 -18 272 -18 q 168 -18 102 45 q 36 108 30 217 l 165 217 q 174 162 204 135 q 234 107 280 107 q 328 107 359 138 q 391 169 391 213 q 391 262 348 296 q 306 330 226 331 l 226 448 q 275 452 299 463 q 323 475 337 495 q 350 515 350 537 q 350 566 330 586 q 309 605 276 605 q 247 605 223 587 q 199 569 190 541 z"},";":{"x_min":0,"x_max":280,"ha":280,"o":"m 140 545 q 172 545 194 522 q 217 500 217 468 q 217 437 194 414 q 172 392 140 392 q 108 392 86 414 q 63 437 63 468 q 63 500 86 522 q 108 545 140 545 z m 132 136 l 226 87 l 106 -119 l 39 -86 z"},"J":{"x_min":0,"x_max":480,"ha":480,"o":"m 261 718 l 398 718 l 398 242 q 398 128 380 82 q 362 36 320 9 q 279 -18 221 -18 q 102 -18 19 86 l 117 178 q 150 141 173 128 q 196 116 217 116 q 239 116 250 134 q 261 153 261 216 z"},"V":{"x_min":0,"x_max":700,"ha":700,"o":"m 27 718 l 168 718 l 349 208 l 532 718 l 672 718 l 414 0 l 282 0 z"},"\"":{"x_min":0,"x_max":360,"ha":360,"o":"m 319 490 l 243 490 l 216 736 l 346 736 z m 118 490 l 42 490 l 15 736 l 146 736 z"},"7":{"x_min":0,"x_max":560,"ha":560,"o":"m 60 718 l 531 718 l 531 646 l 207 -18 l 91 38 l 361 590 l 60 590 z"},"S":{"x_min":0,"x_max":520,"ha":520,"o":"m 458 621 l 357 531 q 304 605 249 605 q 222 605 205 591 q 188 577 188 559 q 188 541 200 524 q 217 503 300 432 q 378 367 395 350 q 437 308 454 269 q 471 231 471 186 q 471 97 410 40 q 349 -18 251 -18 q 174 -18 117 20 q 61 57 20 138 l 135 207 q 187 112 254 112 q 289 112 313 132 q 337 153 337 180 q 337 204 319 229 q 301 253 239 303 q 122 399 88 451 q 54 503 54 555 q 54 629 111 683 q 167 736 251 736 q 305 736 353 711 q 402 687 458 621 z"},"}":{"x_min":0,"x_max":340,"ha":340,"o":"m 333 308 l 333 190 q 290 188 269 173 q 249 158 237 126 q 226 93 226 17 q 226 -80 218 -115 q 209 -150 190 -172 q 170 -193 133 -207 q 96 -220 25 -220 l 0 -220 l 0 -104 q 52 -104 68 -98 q 83 -92 91 -80 q 99 -67 99 -33 q 99 29 105 105 q 108 154 131 193 q 149 222 191 249 q 155 270 134 301 q 113 333 106 381 q 104 402 100 518 q 98 561 94 570 q 87 586 70 594 q 53 601 0 601 l 0 718 l 25 718 q 96 718 130 707 q 164 695 186 673 q 208 650 217 616 q 227 583 227 500 q 227 407 237 375 q 247 342 268 326 q 289 310 333 308 z"},"Z":{"x_min":0,"x_max":500,"ha":500,"o":"m 44 718 l 479 718 l 222 131 l 462 131 l 462 0 l 23 0 l 278 583 l 44 583 z"},"x":{"x_min":0,"x_max":560,"ha":560,"o":"m 20 531 l 174 531 l 278 386 l 384 531 l 537 531 l 355 280 l 560 0 l 405 0 l 278 174 l 153 0 l 0 0 l 202 280 z"},")":{"x_min":0,"x_max":380,"ha":380,"o":"m 195 -208 l 26 -208 q 113 -110 156 5 q 198 119 198 267 q 198 427 151 547 q 114 641 26 750 l 195 750 q 273 626 304 518 q 335 410 335 263 q 335 120 302 12 q 270 -96 195 -208 z"},"&":{"x_min":0,"x_max":680,"ha":680,"o":"m 532 282 l 614 189 l 577 155 l 540 122 l 655 0 l 490 0 l 442 49 q 329 -18 232 -18 q 149 -18 98 30 q 47 79 47 154 q 47 211 76 262 q 105 313 175 367 q 106 460 106 532 q 106 585 152 637 q 198 689 281 689 q 366 689 411 638 q 456 586 456 534 q 456 493 435 456 q 415 418 340 344 q 427 241 453 216 q 468 228 532 282 z m 272 440 q 327 487 327 522 q 327 541 314 553 q 302 564 282 564 q 264 564 251 551 q 238 538 238 521 q 238 485 272 440 z m 354 144 q 316 181 248 267 q 175 207 175 162 q 175 141 195 123 q 214 105 245 105 q 288 105 354 144 z"},"_":{"x_min":0,"x_max":500,"ha":500,"o":"m -6 -75 l 506 -75 l 506 -125 l -6 -125 z"},"v":{"x_min":0,"x_max":560,"ha":560,"o":"m 10 531 l 146 531 l 280 218 l 414 531 l 549 531 l 323 0 l 237 0 z"},"O":{"x_min":0,"x_max":840,"ha":840,"o":"m 421 736 q 574 736 683 626 q 793 516 793 357 q 793 200 685 91 q 577 -18 422 -18 q 261 -18 154 94 q 47 206 47 359 q 47 462 97 549 q 146 635 234 686 q 321 736 421 736 z m 420 603 q 320 603 252 533 q 185 464 185 357 q 185 238 270 168 q 336 114 422 114 q 520 114 588 185 q 656 255 656 358 q 656 460 587 531 q 519 603 420 603 z"},"(":{"x_min":0,"x_max":380,"ha":380,"o":"m 186 750 l 354 750 q 268 652 225 537 q 182 422 182 275 q 182 115 229 -6 q 267 -99 354 -208 l 186 -208 q 107 -84 76 24 q 45 132 45 279 q 45 422 78 530 q 111 638 186 750 z"},"C":{"x_min":0,"x_max":780,"ha":780,"o":"m 742 592 l 646 500 q 549 604 427 604 q 324 604 253 533 q 183 463 183 360 q 183 288 214 232 q 245 177 302 145 q 359 113 429 113 q 489 113 538 135 q 587 158 646 216 l 739 120 q 660 42 589 12 q 518 -18 427 -18 q 260 -18 153 88 q 46 194 46 360 q 46 468 95 551 q 144 635 234 686 q 325 736 429 736 q 518 736 600 699 q 683 661 742 592 z"},"W":{"x_min":0,"x_max":900,"ha":900,"o":"m 27 718 l 162 718 l 266 260 l 394 718 l 508 718 l 638 260 l 740 718 l 875 718 l 713 0 l 582 0 l 450 464 l 320 0 l 190 0 z"},"A":{"x_min":0,"x_max":740,"ha":740,"o":"m 301 718 l 439 718 l 716 0 l 574 0 l 518 148 l 225 148 l 166 0 l 24 0 z m 371 528 l 275 281 l 466 281 z"},"f":{"x_min":0,"x_max":280,"ha":280,"o":"m 4 531 l 51 531 q 52 636 55 655 q 60 699 92 724 q 123 750 181 750 q 222 750 274 731 l 274 629 q 246 638 227 638 q 204 638 193 628 q 185 621 185 598 l 185 531 l 269 531 l 269 418 l 185 418 l 185 0 l 51 0 l 51 418 l 4 418 z"},"Q":{"x_min":0,"x_max":840,"ha":840,"o":"m 698 105 l 823 -57 l 661 -57 l 598 25 q 519 -18 422 -18 q 261 -18 154 94 q 47 205 47 359 q 47 462 97 549 q 146 635 234 686 q 321 736 421 736 q 574 736 683 626 q 793 516 793 357 q 793 211 698 105 z m 613 215 q 656 280 656 358 q 656 460 587 531 q 519 603 421 603 q 320 603 252 533 q 185 464 185 357 q 185 238 270 168 q 337 114 422 114 q 471 114 514 133 l 385 299 l 548 299 z"},"w":{"x_min":0,"x_max":800,"ha":800,"o":"m 8 531 l 139 531 l 246 229 l 361 531 l 440 531 l 553 232 l 660 531 l 792 531 l 598 0 l 513 0 l 400 303 l 283 0 l 200 0 z"},"-":{"x_min":0,"x_max":420,"ha":420,"o":"m 86 327 l 334 327 l 334 203 l 86 203 z"},"E":{"x_min":0,"x_max":520,"ha":520,"o":"m 83 718 l 475 718 l 475 584 l 218 584 l 218 455 l 475 455 l 475 323 l 218 323 l 218 134 l 475 134 l 475 0 l 83 0 z"},"s":{"x_min":0,"x_max":440,"ha":440,"o":"m 393 457 l 310 375 q 260 424 219 424 q 196 424 184 415 q 171 405 171 391 q 171 380 179 371 q 187 362 219 347 l 268 322 q 345 284 374 245 q 402 205 402 152 q 402 81 350 34 q 298 -14 211 -14 q 95 -14 25 77 l 107 167 q 131 139 162 122 q 194 105 218 105 q 245 105 261 118 q 277 131 277 147 q 277 178 219 208 l 174 230 q 45 295 45 393 q 45 456 94 500 q 142 545 218 545 q 270 545 315 522 q 361 500 393 457 z"},">":{"x_min":0,"x_max":600,"ha":600,"o":"m 56 540 l 56 661 l 544 413 l 544 305 l 56 57 l 56 179 l 404 359 z"},"l":{"x_min":0,"x_max":240,"ha":240,"o":"m 53 736 l 187 736 l 187 0 l 53 0 z"},"8":{"x_min":0,"x_max":560,"ha":560,"o":"m 427 389 q 476 358 503 309 q 529 260 529 203 q 529 141 498 88 q 467 35 415 9 q 363 -18 282 -18 q 195 -18 144 8 q 92 33 62 85 q 31 137 31 203 q 31 259 55 306 q 80 353 129 389 q 97 422 81 459 q 64 496 64 537 q 64 593 92 639 q 119 685 167 711 q 216 736 280 736 q 343 736 391 710 q 439 685 467 637 q 494 589 494 535 q 494 496 480 463 q 465 430 427 389 z m 276 604 q 242 604 220 582 q 199 560 199 525 q 199 491 222 467 q 245 444 278 444 q 313 444 335 467 q 357 490 357 526 q 357 561 335 583 q 312 604 276 604 z m 281 316 q 232 316 198 286 q 165 256 165 215 q 165 171 196 141 q 228 111 280 111 q 332 111 363 139 q 394 167 394 212 q 394 256 362 286 q 330 316 281 316 z"},"\\":{"x_min":0,"x_max":640,"ha":640,"o":"m 528 -128 l 434 -128 l 111 739 l 206 739 z"},"e":{"x_min":0,"x_max":640,"ha":640,"o":"m 600 227 l 171 227 q 181 170 221 137 q 261 104 324 104 q 398 104 452 156 l 564 103 q 522 43 464 15 q 405 -14 325 -14 q 200 -14 121 65 q 42 144 42 263 q 42 384 121 465 q 199 545 317 545 q 443 545 521 465 q 600 384 600 252 z m 466 332 q 453 376 414 404 q 375 432 324 432 q 268 432 226 401 q 200 381 177 332 z"},"b":{"x_min":0,"x_max":660,"ha":660,"o":"m 200 736 l 200 473 q 236 509 278 527 q 320 545 368 545 q 472 545 544 466 q 617 388 617 265 q 617 146 542 66 q 467 -14 364 -14 q 318 -14 278 3 q 239 19 200 56 l 200 0 l 67 0 l 67 736 z m 340 422 q 277 422 235 379 q 194 336 194 267 q 194 196 235 152 q 277 108 340 108 q 401 108 443 153 q 484 197 484 266 q 484 334 443 378 q 402 422 340 422 z"},"%":{"x_min":0,"x_max":860,"ha":860,"o":"m 660 750 l 759 750 l 189 -49 l 91 -49 l 578 637 q 534 630 495 626 q 457 623 424 623 q 390 623 353 626 q 363 592 363 564 q 363 493 314 443 q 264 393 193 393 q 121 393 71 443 q 21 493 21 563 q 21 609 43 649 q 65 688 106 712 q 147 736 187 736 q 217 736 271 725 q 365 704 437 704 q 501 704 557 716 q 613 727 660 750 z m 192 647 q 158 647 134 623 q 109 599 109 565 q 109 531 134 507 q 158 482 192 482 q 226 482 250 507 q 274 531 274 565 q 274 599 250 623 q 226 647 192 647 z m 668 324 q 739 324 789 273 q 839 223 839 152 q 839 81 789 31 q 739 -20 668 -20 q 597 -20 547 31 q 497 81 497 152 q 497 223 547 273 q 597 324 668 324 z m 667 235 q 633 235 609 211 q 584 187 584 152 q 584 118 609 94 q 633 69 667 69 q 702 69 726 94 q 750 118 750 152 q 750 187 726 211 q 702 235 667 235 z"},"m":{"x_min":0,"x_max":940,"ha":940,"o":"m 66 531 l 200 531 l 200 470 q 234 508 276 526 q 318 545 367 545 q 417 545 457 521 q 497 496 521 449 q 553 496 599 521 q 646 545 700 545 q 757 545 800 519 q 843 492 862 450 q 880 407 880 312 l 880 0 l 746 0 l 746 270 q 746 360 724 392 q 701 424 656 424 q 622 424 595 404 q 568 385 555 350 q 542 316 542 240 l 542 0 l 407 0 l 407 257 q 407 329 397 361 q 386 393 365 408 q 344 424 314 424 q 281 424 254 404 q 227 384 214 349 q 200 313 200 236 l 200 0 l 66 0 z"},"#":{"x_min":0,"x_max":600,"ha":600,"o":"m 542 331 l 542 234 l 429 234 l 395 0 l 296 0 l 331 234 l 237 234 l 203 0 l 105 0 l 140 234 l 30 234 l 30 331 l 155 331 l 169 423 l 61 423 l 61 520 l 183 520 l 215 736 l 310 736 l 280 520 l 373 520 l 405 736 l 503 736 l 471 520 l 570 520 l 570 423 l 457 423 l 444 331 z m 359 423 l 265 423 l 252 331 l 344 331 z"},",":{"x_min":0,"x_max":280,"ha":280,"o":"m 131 135 l 227 87 l 106 -119 l 40 -87 z"},"n":{"x_min":0,"x_max":600,"ha":600,"o":"m 67 531 l 200 531 l 200 477 q 246 515 282 530 q 319 545 358 545 q 437 545 492 490 q 539 443 539 351 l 539 0 l 407 0 l 407 233 q 407 328 398 359 q 390 391 368 407 q 347 423 316 423 q 275 423 246 396 q 217 369 206 321 q 200 296 200 213 l 200 0 l 67 0 z"},"h":{"x_min":0,"x_max":600,"ha":600,"o":"m 68 736 l 200 736 l 200 478 q 239 511 279 528 q 318 545 359 545 q 438 545 492 490 q 539 443 539 351 l 539 0 l 407 0 l 407 233 q 407 325 398 358 q 390 391 368 407 q 347 423 316 423 q 275 423 246 396 q 217 369 206 323 q 200 299 200 213 l 200 0 l 68 0 z"},"z":{"x_min":0,"x_max":460,"ha":460,"o":"m 44 531 l 452 531 l 213 113 l 438 113 l 438 0 l 8 0 l 248 418 l 44 418 z"},"B":{"x_min":0,"x_max":580,"ha":580,"o":"m 82 0 l 82 718 l 195 718 q 293 718 338 706 q 403 688 441 642 q 479 596 479 533 q 479 492 462 458 q 444 425 405 396 q 471 365 501 319 q 531 272 531 209 q 531 149 500 99 q 469 49 419 25 q 370 0 283 0 z m 219 588 l 219 437 l 249 437 q 298 437 323 458 q 347 479 347 515 q 347 548 324 568 q 301 588 254 588 z m 219 314 l 219 130 l 253 130 q 338 130 367 152 q 397 173 397 214 q 397 261 362 288 q 328 314 247 314 z"},"K":{"x_min":0,"x_max":620,"ha":620,"o":"m 83 718 l 221 718 l 221 471 l 416 718 l 581 718 l 330 398 l 605 0 l 443 0 l 221 319 l 221 0 l 83 0 z"},"R":{"x_min":0,"x_max":580,"ha":580,"o":"m 91 718 l 236 718 q 355 718 406 697 q 457 676 487 626 q 518 577 518 510 q 518 439 484 391 q 450 344 382 319 l 552 0 l 402 0 l 241 304 l 228 304 l 228 0 l 91 0 z m 228 438 l 271 438 q 336 438 361 455 q 386 472 386 511 q 386 535 374 552 q 361 569 341 577 q 320 584 266 584 l 228 584 z"},"T":{"x_min":0,"x_max":420,"ha":420,"o":"m 11 718 l 408 718 l 408 583 l 277 583 l 277 0 l 139 0 l 139 583 l 11 583 z"},"P":{"x_min":0,"x_max":560,"ha":560,"o":"m 82 718 l 227 718 q 344 718 396 697 q 448 675 478 626 q 508 578 508 510 q 508 435 469 385 q 430 335 362 315 q 323 304 218 304 l 218 0 l 82 0 z m 218 438 l 262 438 q 313 438 333 445 q 353 452 365 469 q 376 486 376 510 q 376 551 344 570 q 320 584 257 584 l 218 584 z"},"|":{"x_min":0,"x_max":600,"ha":600,"o":"m 262 736 l 339 736 l 339 -194 l 262 -194 z"},"t":{"x_min":0,"x_max":300,"ha":300,"o":"m 83 727 l 216 727 l 216 531 l 295 531 l 295 417 l 216 417 l 216 0 l 83 0 l 83 417 l 15 417 l 15 531 l 83 531 z"},"M":{"x_min":0,"x_max":900,"ha":900,"o":"m 151 718 l 285 718 l 451 217 l 620 718 l 751 718 l 873 0 l 741 0 l 664 454 l 511 0 l 390 0 l 239 454 l 161 0 l 27 0 z"},"g":{"x_min":0,"x_max":660,"ha":660,"o":"m 460 531 l 593 531 l 593 76 q 593 -59 539 -122 q 466 -208 319 -208 q 241 -208 188 -188 q 135 -169 98 -131 q 62 -93 44 -39 l 191 -39 q 210 -62 241 -73 q 272 -84 314 -84 q 368 -84 400 -68 q 433 -51 447 -25 q 460 1 460 66 q 425 31 386 15 q 348 0 299 0 q 192 0 118 77 q 44 154 44 272 q 44 399 123 476 q 193 545 292 545 q 337 545 378 528 q 419 511 460 473 z m 322 420 q 259 420 218 378 q 177 336 177 272 q 177 206 219 163 q 261 121 324 121 q 386 121 427 162 q 467 204 467 271 q 467 337 426 379 q 386 420 322 420 z"},"j":{"x_min":0,"x_max":260,"ha":260,"o":"m 130 750 q 166 750 191 725 q 216 699 216 663 q 216 627 191 602 q 166 577 131 577 q 96 577 71 603 q 45 628 45 665 q 45 700 70 725 q 95 750 130 750 z m 63 531 l 197 531 l 197 -18 q 197 -93 182 -131 q 167 -168 135 -188 q 103 -208 57 -208 q 17 -208 -42 -188 l -42 -83 q -11 -98 13 -98 q 38 -98 51 -83 q 63 -68 63 -27 z"},"i":{"x_min":0,"x_max":240,"ha":240,"o":"m 120 750 q 155 750 180 725 q 205 699 205 663 q 205 627 180 602 q 155 577 121 577 q 85 577 60 603 q 35 628 35 665 q 35 700 60 725 q 84 750 120 750 z m 53 531 l 187 531 l 187 0 l 53 0 z"},"y":{"x_min":0,"x_max":580,"ha":580,"o":"m 8 531 l 145 531 l 283 198 l 435 531 l 572 531 l 239 -194 l 101 -194 l 210 40 z"},"@":{"x_min":0,"x_max":740,"ha":740,"o":"m 600 147 l 693 147 q 640 81 598 51 q 557 21 502 4 q 448 -13 389 -13 q 284 -13 195 38 q 105 89 55 177 q 4 265 4 368 q 4 473 55 562 q 106 652 194 702 q 282 752 388 752 q 534 752 635 658 q 736 563 736 438 q 736 347 694 281 q 651 214 579 177 q 523 149 485 149 q 457 149 440 164 q 427 175 426 201 q 383 154 321 154 q 252 154 206 203 q 160 252 160 334 q 160 425 216 496 q 273 567 367 567 q 405 567 436 551 q 466 535 487 503 l 498 554 l 593 554 l 545 270 q 540 239 540 235 q 540 230 545 225 q 550 221 557 221 q 574 221 603 244 q 632 268 651 313 q 669 357 669 411 q 669 490 634 550 q 600 611 535 646 q 470 680 386 680 q 297 680 227 641 q 157 602 116 530 q 76 458 76 371 q 76 283 117 211 q 158 139 231 99 q 305 59 396 59 q 450 59 498 79 q 546 99 600 147 z m 361 257 q 403 257 431 292 q 459 327 459 371 q 459 409 436 433 q 414 457 379 457 q 339 457 310 424 q 280 391 280 344 q 280 305 302 281 q 325 257 361 257 z"},".":{"x_min":0,"x_max":280,"ha":280,"o":"m 140 139 q 172 139 194 117 q 217 95 217 63 q 217 31 194 9 q 172 -14 140 -14 q 108 -14 86 9 q 63 31 63 63 q 63 95 86 117 q 108 139 140 139 z"},"p":{"x_min":0,"x_max":660,"ha":660,"o":"m 200 531 l 200 473 q 236 509 278 527 q 320 545 368 545 q 472 545 544 466 q 617 388 617 265 q 617 146 542 66 q 467 -14 364 -14 q 318 -14 278 3 q 239 19 200 56 l 200 -194 l 67 -194 l 67 531 z m 340 422 q 277 422 235 379 q 194 336 194 267 q 194 196 235 152 q 277 108 340 108 q 401 108 443 153 q 484 197 484 266 q 484 334 443 378 q 402 422 340 422 z"},"X":{"x_min":0,"x_max":680,"ha":680,"o":"m 35 718 l 189 718 l 339 488 l 491 718 l 645 718 l 417 371 l 659 0 l 505 0 l 339 252 l 175 0 l 20 0 l 263 371 z"},"*":{"x_min":0,"x_max":440,"ha":440,"o":"m 162 736 l 286 736 l 247 589 l 357 693 l 415 586 l 266 548 l 415 505 l 350 399 l 244 505 l 281 359 l 162 359 l 199 505 l 90 399 l 25 505 l 175 548 l 25 589 l 90 698 l 199 589 z"},"Y":{"x_min":0,"x_max":620,"ha":620,"o":"m 31 718 l 178 718 l 312 460 l 444 718 l 589 718 l 379 311 l 379 0 l 242 0 l 242 311 z"},"c":{"x_min":0,"x_max":640,"ha":640,"o":"m 587 424 l 477 363 q 445 396 415 408 q 384 421 343 421 q 269 421 222 376 q 176 332 176 262 q 176 194 221 151 q 265 108 337 108 q 427 108 477 169 l 582 97 q 496 -14 340 -14 q 200 -14 121 69 q 42 152 42 264 q 42 341 80 406 q 119 471 188 508 q 257 545 342 545 q 421 545 484 513 q 547 482 587 424 z"},"!":{"x_min":0,"x_max":280,"ha":280,"o":"m 72 736 l 207 736 l 207 211 l 72 211 z m 140 153 q 174 153 199 129 q 224 104 224 70 q 224 36 199 11 q 174 -14 140 -14 q 105 -14 81 11 q 56 35 56 70 q 56 104 81 129 q 105 153 140 153 z"},"/":{"x_min":0,"x_max":460,"ha":460,"o":"m 21 -128 l 344 739 l 439 739 l 116 -128 z"},"[":{"x_min":0,"x_max":320,"ha":320,"o":"m 83 736 l 296 736 l 296 612 l 217 612 l 217 -70 l 296 -70 l 296 -194 l 83 -194 z"},"6":{"x_min":0,"x_max":560,"ha":560,"o":"m 290 736 l 406 678 l 281 434 q 372 434 436 369 q 500 303 500 206 q 500 112 434 47 q 369 -18 276 -18 q 179 -18 114 50 q 49 117 49 205 q 49 238 59 271 q 69 305 105 375 z m 273 305 q 235 305 209 277 q 183 250 183 208 q 183 167 210 138 q 237 110 273 110 q 312 110 339 138 q 366 166 366 208 q 366 250 340 277 q 313 305 273 305 z"},"r":{"x_min":0,"x_max":320,"ha":320,"o":"m 36 531 l 150 531 l 150 464 q 169 504 200 524 q 230 545 267 545 q 293 545 321 531 l 280 417 q 256 428 241 428 q 210 428 189 390 q 168 352 168 241 l 168 215 l 168 0 l 36 0 z"},"2":{"x_min":0,"x_max":560,"ha":560,"o":"m 174 487 l 41 487 q 46 603 114 670 q 182 736 288 736 q 353 736 403 709 q 453 681 483 629 q 513 577 513 523 q 513 459 477 386 q 440 312 344 211 l 263 126 l 519 126 l 519 0 l 21 0 l 21 65 l 244 292 q 324 374 351 423 q 377 473 377 513 q 377 554 350 581 q 322 608 279 608 q 235 608 206 576 q 176 543 174 487 z"},"{":{"x_min":0,"x_max":340,"ha":340,"o":"m 6 190 l 6 308 q 50 310 71 325 q 91 340 102 372 q 113 404 113 481 q 113 578 122 613 q 131 648 150 670 q 169 691 207 705 q 244 718 314 718 l 340 718 l 340 601 q 288 601 272 595 q 256 590 248 577 q 241 564 241 530 q 241 469 235 393 q 231 344 208 305 q 191 276 149 249 q 185 228 206 197 q 227 165 233 117 q 236 96 240 -20 q 242 -62 246 -73 q 252 -88 269 -96 q 287 -104 340 -104 l 340 -220 l 314 -220 q 244 -220 209 -209 q 175 -197 154 -175 q 132 -153 123 -119 q 113 -85 113 -2 q 113 91 103 123 q 93 156 72 172 q 51 188 6 190 z"},"9":{"x_min":0,"x_max":560,"ha":560,"o":"m 270 -18 l 154 40 l 279 284 q 188 284 124 349 q 60 415 60 512 q 60 606 126 671 q 191 736 284 736 q 381 736 446 669 q 511 601 511 513 q 511 480 501 447 q 491 413 455 343 z m 287 413 q 325 413 351 441 q 377 469 377 510 q 377 552 350 580 q 323 608 287 608 q 249 608 221 580 q 194 552 194 510 q 194 469 220 441 q 247 413 287 413 z"}," ":{"x_min":0,"x_max":280,"ha":280,"o":""},"I":{"x_min":0,"x_max":280,"ha":280,"o":"m 72 718 l 208 718 l 208 0 l 72 0 z"},"H":{"x_min":0,"x_max":680,"ha":680,"o":"m 82 718 l 220 718 l 220 447 l 460 447 l 460 718 l 599 718 l 599 0 l 460 0 l 460 315 l 220 315 l 220 0 l 82 0 z"},"4":{"x_min":0,"x_max":560,"ha":560,"o":"m 331 736 l 468 736 l 468 274 l 532 274 l 532 147 l 468 147 l 468 0 l 334 0 l 334 147 l 21 147 l 21 274 z m 334 274 l 334 515 l 170 274 z"},"~":{"x_min":0,"x_max":600,"ha":600,"o":"m 49 275 l 49 431 q 123 467 171 467 q 202 467 240 457 q 277 446 339 417 q 379 396 392 393 q 409 388 426 388 q 480 388 552 443 l 552 286 q 490 251 431 251 q 399 251 366 260 q 333 269 260 301 q 213 322 197 326 q 181 330 165 330 q 141 330 116 319 q 91 309 49 275 z"},"D":{"x_min":0,"x_max":700,"ha":700,"o":"m 83 718 l 245 718 q 401 718 478 679 q 554 641 603 553 q 652 466 652 349 q 652 266 625 197 q 597 127 549 81 q 500 35 443 18 q 387 0 247 0 l 83 0 z m 219 586 l 219 134 l 282 134 q 376 134 418 155 q 460 177 487 228 q 514 278 514 353 q 514 467 450 530 q 393 586 265 586 z"},"^":{"x_min":0,"x_max":600,"ha":600,"o":"m 243 718 l 356 718 l 546 179 l 428 179 l 300 544 l 172 179 l 53 179 z"},"0":{"x_min":0,"x_max":560,"ha":560,"o":"m 278 736 q 356 736 413 698 q 470 659 501 580 q 532 500 532 359 q 532 216 501 136 q 469 57 416 19 q 363 -18 282 -18 q 201 -18 146 20 q 90 57 59 134 q 28 210 28 352 q 28 550 89 639 q 157 736 278 736 z m 281 606 q 247 606 220 584 q 193 562 179 508 q 165 454 165 349 q 165 213 197 161 q 229 109 281 109 q 331 109 360 158 q 396 218 396 357 q 396 499 364 553 q 332 606 281 606 z"},"F":{"x_min":0,"x_max":480,"ha":480,"o":"m 84 718 l 440 718 l 440 585 l 219 585 l 219 455 l 440 455 l 440 323 l 219 323 l 219 0 l 84 0 z"},"`":{"x_min":0,"x_max":420,"ha":420,"o":"m 187 820 l 303 628 l 208 628 l 29 820 z"},"k":{"x_min":0,"x_max":580,"ha":580,"o":"m 68 736 l 202 736 l 202 312 l 398 531 l 565 531 l 336 276 l 593 0 l 427 0 l 202 245 l 202 0 l 68 0 z"},"u":{"x_min":0,"x_max":600,"ha":600,"o":"m 67 531 l 202 531 l 202 275 q 202 201 212 172 q 222 143 245 126 q 268 110 301 110 q 334 110 357 126 q 380 142 392 173 q 400 196 400 271 l 400 531 l 534 531 l 534 306 q 534 167 512 116 q 485 53 433 20 q 380 -14 300 -14 q 212 -14 158 25 q 104 64 83 134 q 67 183 67 310 z"},"]":{"x_min":0,"x_max":320,"ha":320,"o":"m 237 -194 l 23 -194 l 23 -70 l 103 -70 l 103 612 l 23 612 l 23 736 l 237 736 z"},"U":{"x_min":0,"x_max":640,"ha":640,"o":"m 77 718 l 214 718 l 214 253 q 214 193 225 168 q 235 144 260 129 q 284 114 318 114 q 354 114 380 130 q 406 147 416 173 q 426 198 426 271 l 426 718 l 563 718 l 563 290 q 563 182 551 140 q 539 98 505 59 q 470 20 425 1 q 380 -18 321 -18 q 243 -18 185 18 q 127 54 102 108 q 77 162 77 290 z"},"o":{"x_min":0,"x_max":640,"ha":640,"o":"m 317 545 q 392 545 458 507 q 524 470 562 405 q 599 341 599 266 q 599 191 561 125 q 524 60 459 23 q 395 -14 317 -14 q 203 -14 122 68 q 42 149 42 265 q 42 390 133 473 q 213 545 317 545 z m 319 419 q 257 419 216 376 q 174 333 174 266 q 174 196 215 153 q 256 110 318 110 q 381 110 422 154 q 464 197 464 266 q 464 334 423 377 q 382 419 319 419 z"},"N":{"x_min":0,"x_max":740,"ha":740,"o":"m 83 718 l 213 718 l 521 246 l 521 718 l 658 718 l 658 0 l 527 0 l 219 471 l 219 0 l 83 0 z"},"+":{"x_min":0,"x_max":600,"ha":600,"o":"m 239 420 l 239 603 l 361 603 l 361 420 l 544 420 l 544 298 l 361 298 l 361 115 l 239 115 l 239 298 l 56 298 l 56 420 z"},"G":{"x_min":0,"x_max":840,"ha":840,"o":"m 745 601 l 649 506 q 558 603 436 603 q 330 603 259 532 q 187 462 187 361 q 187 257 261 185 q 335 113 444 113 q 515 113 564 143 q 612 172 642 236 l 434 236 l 434 364 l 795 364 l 796 334 q 796 240 748 155 q 699 71 621 26 q 543 -18 439 -18 q 327 -18 240 31 q 152 79 101 169 q 50 259 50 363 q 50 505 144 611 q 256 736 435 736 q 529 736 610 702 q 679 672 745 601 z"},"q":{"x_min":0,"x_max":660,"ha":660,"o":"m 460 531 l 593 531 l 593 -194 l 460 -194 l 460 56 q 421 19 382 3 q 342 -14 296 -14 q 193 -14 118 66 q 43 146 43 265 q 43 388 116 466 q 188 545 292 545 q 340 545 382 527 q 424 509 460 473 z m 320 422 q 258 422 217 378 q 176 334 176 266 q 176 197 218 153 q 259 108 320 108 q 383 108 425 152 q 466 196 466 267 q 466 336 425 379 q 383 422 320 422 z"},"d":{"x_min":0,"x_max":660,"ha":660,"o":"m 460 736 l 593 736 l 593 0 l 460 0 l 460 56 q 421 19 382 3 q 342 -14 296 -14 q 193 -14 118 66 q 43 146 43 265 q 43 388 116 466 q 188 545 292 545 q 340 545 382 527 q 424 509 460 473 z m 320 422 q 258 422 217 378 q 176 334 176 266 q 176 197 218 153 q 259 108 320 108 q 383 108 425 152 q 466 196 466 267 q 466 336 425 379 q 383 422 320 422 z"},"1":{"x_min":0,"x_max":560,"ha":560,"o":"m 165 718 l 369 718 l 369 0 l 233 0 l 233 590 l 85 590 z"},"5":{"x_min":0,"x_max":560,"ha":560,"o":"m 167 718 l 503 718 l 503 592 l 269 592 l 240 461 q 252 465 264 467 q 275 468 286 468 q 384 468 448 402 q 513 335 513 231 q 513 126 442 54 q 370 -18 268 -18 q 176 -18 110 34 q 44 86 23 177 l 167 177 q 184 144 211 126 q 238 109 271 109 q 316 109 348 142 q 379 174 379 226 q 379 275 350 307 q 320 339 278 339 q 256 339 234 328 q 212 317 191 294 l 80 319 z"}}}
